<svg xmlns="http://www.w3.org/2000/svg" viewBox="0 0 960 560"><defs><style>.a{fill:none;}.b,.f{fill:#063e8e;}.c,.e{fill:#ff6700;}.d{fill:#214f9d;}.e{font-size:178.65px;}.e,.f{font-family:NirmalaUI-Bold, Nirmala UI;font-weight:700;}.f{font-size:228.67px;}</style></defs><title>LOGO1</title><rect class="a" x="128.75" y="440.46" width="36.61" height="9.41"/><polygon class="b" points="214.91 411.18 136.96 411.18 110.98 332.72 240.9 332.72 214.91 411.18"/><rect class="b" x="81.75" y="280.67" width="188.38" height="45.47" rx="2" ry="2"/><path class="b" d="M289,287.16c-2.16,0-222.8.06-227.57,0-8.58,0-13.21-2-13.21-9.74V254.27H301.34v22.61C301.34,285.13,298.73,287.16,289,287.16Z"/><path class="c" d="M39.11,243.11C-10,243.71,5.17,75.54,5.17,75.54S19,211,63,211c46.5,0,53.44,32.09,53.44,32.09S88.23,242.51,39.11,243.11Z"/><path class="c" d="M30.47,43.54s8.65,51.58,31.79,52.39c67.76,2.38,45.47,36.13,72.67,96.22,16.39,36.2,42.8,47.51,42.8,47.51S153.48,251.49,114,210.58c-19.71-20.45-40.82-11.93-51.79-18.79C12.92,160.9,30.47,44.86,30.47,44.86"/><path class="c" d="M289.62,246.95s-3.92-35.45-27.34-45.41c-16.45-7-25.64-2.82-43.81-8.13C179.72,182.07,137,84.94,137,84.94S126.47,187,179.6,223.61c17.34,11.95,48.69,23.34,48.69,23.34Z"/><path class="c" d="M169.81,57.73s8.83,32.4,50.57,35.33S283.09,78.35,316,109.52s-17.67,133.6-17.67,133.6,1.56-41.82-8.74-53.78c-15-22.69-44.29-10.22-70.46-22.69C165.07,140.89,169.81,57.73,169.81,57.73Z"/><polygon class="b" points="188.93 481.61 163.54 481.09 140.21 421.63 211.13 421.63 188.93 481.61"/><rect class="d" x="140.25" y="418.5" width="71.13" height="3.14"/><rect class="d" x="164.31" y="484.4" width="23.01" height="5.23"/><text class="e" transform="translate(312.28 326.14) scale(0.94 1)">a</text><path class="c" d="M431.62,314.51h-.33V418h-26V235.56h26V249h.33q9.64-15.61,27.1-15.61,16.39,0,25.33,11.91T493,277.7q0,22.33-10.42,35.85t-27.72,13.52Q439.61,327.07,431.62,314.51Zm-.74-36.64V285q0,9.25,4.61,15.09A14.69,14.69,0,0,0,447.6,306a15.69,15.69,0,0,0,13.8-7.28q4.9-7.28,4.9-20.63,0-23.55-17.3-23.55a15.9,15.9,0,0,0-13.06,6.41Q430.88,267.31,430.88,277.87Z"/><path class="c" d="M536.24,314.51h-.33V435h-26V235.56h26V249h.33q9.64-15.61,27.1-15.61,16.39,0,25.33,11.91t8.94,32.41q0,22.33-10.42,35.85t-27.72,13.52Q544.24,327.07,536.24,314.51Zm-.74-36.64V285q0,9.25,4.61,15.09A14.69,14.69,0,0,0,552.23,306a15.69,15.69,0,0,0,13.8-7.28q4.9-7.28,4.9-20.63,0-23.55-17.3-23.55a15.9,15.9,0,0,0-13.06,6.41Q535.5,267.31,535.5,277.87Z"/><text class="f" transform="translate(229.4 489.63) scale(0.99 1)">Ucenm</text></svg>